# xmcd
#
# Track frame offsets:
#         150
#       27237
#       51495
#       67395
#      104420
#      120922
#      141555
#      163637
#      188290
#      210072
#      245527
#      276567
#
# Disc length:   3993 seconds
#
# Revision:        0
# Processed by: cddbd v1.5.2PL0 Copyright (c) Steve Scherf et al.
# Submitted via: libcddb 1.3.2
#
DISCID=b10f970c
DTITLE=新井英一 - 果てなき航路
DYEAR=1995
DGENRE=blues
TTITLE0=果てなき航路
TTITLE1=リキに捧ぐ
TTITLE2=雪に書く恋文
TTITLE3=君に夢の歌を
TTITLE4=ジプシー
TTITLE5=所詮男と言う奴は
TTITLE6=シャングリラ
TTITLE7=古いブルース
TTITLE8=あゝこの国では…
TTITLE9=冒険者たち
TTITLE10=清河への道
TTITLE11=南人情博多節
EXTD=
EXTT0=
EXTT1=
EXTT2=
EXTT3=
EXTT4=
EXTT5=
EXTT6=
EXTT7=
EXTT8=
EXTT9=
EXTT10=
EXTT11=
PLAYORDER=
